<svg version="1.1" id="Layer_1" xmlns="http://www.w3.org/2000/svg" xmlns:xlink="http://www.w3.org/1999/xlink" x="0px" y="0px"
	 width="100%" viewBox="0 0 256 256" enable-background="new 0 0 256 256" xml:space="preserve">
<path fill="#000000" opacity="1.000000" stroke="none" 
	d="
M141.000000,257.000000 
	C94.000000,257.000000 47.500004,257.000000 1.000006,257.000000 
	C1.000004,171.666672 1.000004,86.333351 1.000002,1.000018 
	C86.333321,1.000012 171.666641,1.000012 257.000000,1.000006 
	C257.000000,86.333313 257.000000,171.666626 257.000000,256.999969 
	C218.500000,257.000000 180.000000,257.000000 141.000000,257.000000 
M161.785858,141.755615 
	C172.804153,142.648804 182.577408,139.097275 191.205231,132.662674 
	C205.680328,121.867157 215.930527,108.618011 214.955643,89.195755 
	C214.580475,81.721718 214.899048,74.214554 214.799362,66.723839 
	C214.774429,64.849777 215.769363,62.300022 213.373459,61.398396 
	C211.318619,60.625114 209.629929,62.424911 208.159973,63.724335 
	C202.053650,69.122322 196.026733,74.610054 189.947311,80.038704 
	C188.701172,81.151459 187.769455,82.920601 185.398239,82.667374 
	C186.605347,78.272881 191.154388,76.838745 192.887482,72.760201 
	C188.690445,69.173798 183.925156,66.559059 178.788010,64.687546 
	C167.179703,60.458523 156.329575,61.375675 146.386078,69.419334 
	C140.719757,74.003029 136.885468,80.056946 132.348312,85.554123 
	C123.641235,96.103516 122.296623,110.164665 129.145309,121.882835 
	C136.217545,133.983551 147.095978,140.231857 161.785858,141.755615 
M151.839294,173.193954 
	C151.805511,170.696686 151.662643,168.194717 151.770248,165.703552 
	C151.867523,163.451233 151.005112,160.963120 153.461670,157.706635 
	C155.248657,165.162170 153.785599,171.627945 154.728241,178.084534 
	C164.965515,169.072571 165.717896,164.888077 159.255005,154.387619 
	C157.748184,151.939438 142.781418,148.009048 140.466324,149.483139 
	C140.058975,149.742508 139.801559,150.226089 139.435593,150.563477 
	C134.930878,154.716446 131.247055,155.336472 127.473465,152.588989 
	C124.090256,150.125717 123.151085,145.718857 125.137222,140.912750 
	C125.780304,139.356598 126.453468,138.082764 125.602371,136.246124 
	C119.297279,122.639832 119.338272,122.618401 104.171471,121.573944 
	C102.843384,121.482483 101.509148,121.480316 100.181000,121.389496 
	C96.586411,121.143661 93.198799,121.853806 90.131454,123.741768 
	C81.050720,129.331009 75.939278,138.320007 69.820595,146.908020 
	C74.884605,149.732483 79.541183,152.292938 83.225250,156.218994 
	C84.606796,157.691284 85.906029,156.921066 87.140182,155.860199 
	C91.457329,152.149200 95.584457,148.374542 97.170860,142.524216 
	C98.121033,139.020126 99.748413,135.733780 103.290710,132.523682 
	C102.986382,136.111847 106.430809,134.261810 107.244980,136.259781 
	C107.046661,136.677658 106.985435,137.125153 106.762436,137.230621 
	C97.827812,141.456635 97.305702,152.645340 89.650482,157.935577 
	C89.335602,158.153168 89.337120,158.855408 89.228134,159.340149 
	C87.254044,168.120071 93.883934,181.168259 102.121391,184.793655 
	C107.497429,187.159729 113.175278,188.430450 118.911392,189.476089 
	C121.825172,190.007248 124.195259,189.378845 126.593430,187.168930 
	C131.270325,182.859146 137.132736,180.665054 143.505264,180.986313 
	C150.329208,181.330322 151.187256,180.897629 151.839294,173.193954 
M98.874390,79.479782 
	C97.877861,79.407379 96.880325,79.260178 95.884964,79.273643 
	C76.294701,79.538834 69.788818,82.778961 64.478096,99.467995 
	C64.075050,100.734573 63.735806,102.027542 63.241238,103.257729 
	C61.920818,106.542091 62.419949,109.281883 65.020309,111.865440 
	C70.025612,116.838379 71.238220,123.007706 70.290604,129.833328 
	C69.753120,133.704803 68.821236,137.588913 69.675499,142.630920 
	C75.179642,134.513229 80.193375,127.156898 87.782967,121.970093 
	C96.134277,116.262711 105.645500,120.230339 114.342636,118.389458 
	C114.555496,115.735886 114.607071,113.412712 114.952652,111.134125 
	C115.675682,106.366776 116.649925,101.636993 117.346786,96.866325 
	C118.570190,88.490944 116.034477,84.429878 107.942978,81.783943 
	C105.259430,80.906425 102.474655,80.338470 98.874390,79.479782 
M104.286674,40.114300 
	C94.290421,36.207096 84.483269,35.562172 75.290321,42.190323 
	C71.491745,44.929104 69.645676,50.406853 71.297554,53.613682 
	C73.685104,58.248711 77.858116,58.094921 82.143539,57.255840 
	C83.773270,56.936733 85.373207,56.445202 86.966843,55.966129 
	C90.512993,54.900112 94.105553,54.200245 97.798737,54.930588 
	C104.662621,56.287945 107.264107,62.072750 104.704239,68.576317 
	C103.191910,72.418533 100.351547,74.089897 96.385834,75.280182 
	C108.254745,81.994644 120.164207,71.564613 118.827827,60.866035 
	C117.659500,51.512836 113.609062,44.521973 104.286674,40.114300 
M166.295563,163.765305 
	C167.334167,172.851654 158.370956,176.528152 154.961670,184.213409 
	C161.763870,181.437057 167.031876,177.783646 171.934647,173.632370 
	C181.686615,165.375137 188.274887,154.946381 192.313980,142.885712 
	C192.878769,141.199295 193.488495,139.176300 191.840744,137.750504 
	C190.206100,136.336029 188.732666,137.757034 187.340378,138.558533 
	C181.649338,141.834717 175.557373,143.700958 169.022278,144.517288 
	C162.441681,145.339340 160.203552,149.847626 163.013351,155.641357 
	C164.169083,158.024445 165.128265,160.502869 166.295563,163.765305 
M123.804184,90.447281 
	C128.251175,87.254616 130.583572,82.775352 131.455490,77.261703 
	C132.300476,78.288246 133.054626,79.434875 134.042770,78.347107 
	C139.041412,72.844536 144.697113,67.784927 146.679825,60.163250 
	C147.277588,57.865406 145.894928,57.154202 144.160950,56.721436 
	C137.660324,55.099022 131.057907,54.532391 124.375000,55.002777 
	C122.592110,55.128269 120.959663,55.592823 121.277023,57.930477 
	C122.507004,66.990738 119.983719,74.377113 110.878365,79.108879 
	C116.348618,82.221062 119.481140,86.571419 123.804184,90.447281 
M67.636047,169.993668 
	C73.710518,173.631256 78.122879,173.547501 81.536789,169.526749 
	C84.356171,166.206223 84.603615,162.700394 81.848541,159.104874 
	C77.766792,153.777969 70.477089,149.700211 67.396278,151.110840 
	C67.245987,151.179657 67.092987,151.258224 66.967720,151.363693 
	C60.994499,156.392731 58.618141,158.890518 63.750381,165.153992 
	C64.908081,166.566864 66.013756,168.022369 67.636047,169.993668 
M151.355087,62.625687 
	C153.710526,61.126446 157.714584,61.796925 157.977539,57.574036 
	C159.343964,57.609425 160.145004,59.230011 162.038712,58.721573 
	C160.630859,55.731415 161.397552,52.886406 162.465836,49.804661 
	C165.282928,52.620777 162.432022,57.432072 166.070282,58.945824 
	C169.131088,60.219318 172.754395,60.140884 177.564468,60.882214 
	C173.533020,53.395527 170.195801,47.017433 166.683136,40.737473 
	C164.291031,36.460857 162.056976,36.359348 159.458023,40.544056 
	C155.593185,46.766991 152.936661,53.602413 150.084290,60.325424 
	C149.713409,61.199596 149.245041,62.301811 151.355087,62.625687 
M143.742386,183.671082 
	C138.295822,183.064697 133.684814,185.311218 129.367966,188.164505 
	C126.496315,190.062576 126.959976,193.089966 127.838440,195.835037 
	C128.686264,198.484375 129.508255,201.430756 133.111435,201.629944 
	C136.623566,201.824127 140.124542,201.515564 143.348999,200.076553 
	C146.690292,198.585403 149.253555,196.095840 149.512894,192.266678 
	C149.768951,188.486008 148.068878,185.534561 143.742386,183.671082 
M99.598564,70.174866 
	C100.550301,69.042725 101.666481,68.008453 102.412926,66.754143 
	C103.387856,65.115898 103.754631,63.192116 102.339905,61.636364 
	C100.874283,60.024651 99.206032,61.172531 97.810875,61.927742 
	C94.897072,63.505009 91.981560,65.117737 89.249916,66.983994 
	C84.943443,69.926163 80.973396,73.269722 77.314445,78.480492 
	C86.266830,78.169945 92.284439,73.411674 99.598564,70.174866 
M67.511261,126.796410 
	C68.419662,121.286011 66.819466,116.817017 61.544849,112.792488 
	C59.703857,120.313843 59.951786,126.933456 61.941349,133.808594 
	C65.432274,132.745544 66.774574,130.501938 67.511261,126.796410 
M120.513351,92.407501 
	C119.605415,98.612000 118.744926,104.824066 117.757866,111.015953 
	C117.494606,112.667397 117.065033,114.290665 117.799500,115.868614 
	C118.494537,117.361832 119.273026,119.140823 121.361511,118.556480 
	C123.321037,118.008209 123.613701,116.367264 123.106018,114.543480 
	C121.378647,108.338165 121.438446,102.166901 123.238953,95.962845 
	C123.808243,94.001236 123.867035,91.922401 120.513351,92.407501 
M129.178986,146.525864 
	C133.896408,143.425568 133.216827,148.759079 134.772217,150.408936 
	C138.598633,147.683670 139.213867,144.697800 136.752548,141.728363 
	C134.590378,139.119812 130.675797,138.822281 128.420334,141.095078 
	C125.934631,143.599838 126.138275,146.549866 128.959442,149.012680 
	C128.959442,148.359848 128.959442,147.707031 129.178986,146.525864 
M63.307182,141.506699 
	C63.885757,142.864914 64.464333,144.223145 65.042908,145.581360 
	C65.456230,142.415344 67.328766,139.531906 66.098778,136.319824 
	C63.441532,137.195343 62.386318,138.508224 63.307182,141.506699 
M86.649529,175.622253 
	C87.773193,176.091125 88.395187,177.636230 90.212669,177.192719 
	C89.626633,175.883011 89.153656,174.650543 88.536949,173.494766 
	C87.857559,172.221512 87.583763,170.494751 85.734962,170.295502 
	C84.793709,170.194046 84.139702,170.866257 83.934738,171.714294 
	C83.480095,173.595337 85.098145,174.266815 86.649529,175.622253 
z"/>
<path fill="#000000" opacity="1.000000" stroke="none" 
	d="
M141.003082,100.590958 
	C141.166840,93.596397 144.520981,88.669785 149.516556,84.739395 
	C151.089859,83.501549 153.048325,82.627052 155.030930,83.960266 
	C157.067245,85.329605 157.524033,87.410133 156.918243,89.679604 
	C155.513947,94.940437 153.001801,99.546089 148.402359,102.682472 
	C145.487549,104.670090 142.802444,104.712563 141.003082,100.590958 
z"/>
<path fill="#000000" opacity="1.000000" stroke="none" 
	d="
M179.012848,98.647705 
	C184.197281,97.483055 186.034225,98.915802 185.397461,103.574173 
	C184.643875,109.087296 181.724472,113.435699 177.293961,116.720551 
	C175.533234,118.025978 173.511139,119.050880 171.378571,117.433449 
	C169.390350,115.925499 169.197006,113.669067 169.813614,111.558952 
	C171.331787,106.363434 173.936005,101.824158 179.012848,98.647705 
z"/>
<path fill="#000000" opacity="1.000000" stroke="none" 
	d="
M154.852173,118.616608 
	C151.820297,116.411636 147.481735,114.920670 148.635178,109.795349 
	C150.557343,109.684387 149.574097,111.995216 151.097198,112.014702 
	C152.412827,110.350967 150.627014,108.060913 152.351013,106.204010 
	C154.858429,106.835403 157.145203,107.944717 159.309006,110.425865 
	C155.504807,111.939766 153.845718,114.505363 154.852173,118.616608 
z"/>
</svg>